<?xml version="1.0" encoding="UTF-8" standalone="no"?>
<!-- Created with Inkscape (http://www.inkscape.org/) -->

<svg
   xmlns:dc="http://purl.org/dc/elements/1.1/"
   xmlns:cc="http://creativecommons.org/ns#"
   xmlns:rdf="http://www.w3.org/1999/02/22-rdf-syntax-ns#"
   xmlns:svg="http://www.w3.org/2000/svg"
   xmlns="http://www.w3.org/2000/svg"
   xmlns:sodipodi="http://sodipodi.sourceforge.net/DTD/sodipodi-0.dtd"
   xmlns:inkscape="http://www.inkscape.org/namespaces/inkscape"
   version="1.1"
   id="svg2"
   xml:space="preserve"
   width="1246.6128"
   height="461.7084"
   viewBox="0 0 1246.6128 461.7084"
   sodipodi:docname="logo.svg"
   inkscape:version="0.92.3 (2405546, 2018-03-11)"><metadata
     id="metadata8"><rdf:RDF><cc:Work
         rdf:about=""><dc:format>image/svg+xml</dc:format><dc:type
           rdf:resource="http://purl.org/dc/dcmitype/StillImage" /><dc:title></dc:title></cc:Work></rdf:RDF></metadata><defs
     id="defs6"><clipPath
       clipPathUnits="userSpaceOnUse"
       id="clipPath18"><path
         d="M 0,1080 H 1080 V 0 H 0 Z"
         id="path16"
         inkscape:connector-curvature="0" /></clipPath><clipPath
       clipPathUnits="userSpaceOnUse"
       id="clipPath62"><path
         d="M 0,1080 H 1080 V 0 H 0 Z"
         id="path60"
         inkscape:connector-curvature="0" /></clipPath><clipPath
       clipPathUnits="userSpaceOnUse"
       id="clipPath78"><path
         d="M 0,1080 H 1080 V 0 H 0 Z"
         id="path76"
         inkscape:connector-curvature="0" /></clipPath></defs><sodipodi:namedview
     pagecolor="#ffffff"
     bordercolor="#666666"
     borderopacity="1"
     objecttolerance="10"
     gridtolerance="10"
     guidetolerance="10"
     inkscape:pageopacity="0"
     inkscape:pageshadow="2"
     inkscape:window-width="1366"
     inkscape:window-height="705"
     id="namedview4"
     showgrid="false"
     fit-margin-top="0"
     fit-margin-left="0"
     fit-margin-right="0"
     fit-margin-bottom="0"
     inkscape:zoom="0.16388889"
     inkscape:cx="623.30614"
     inkscape:cy="231.85415"
     inkscape:window-x="0"
     inkscape:window-y="162"
     inkscape:window-maximized="1"
     inkscape:current-layer="g10" /><g
     id="g10"
     inkscape:groupmode="layer"
     inkscape:label="COACHING - LOGO"
     transform="matrix(1.3333333,0,0,-1.3333333,-96.693864,949.85425)"><g
       id="g12"><g
         id="g14"
         clip-path="url(#clipPath18)"><g
           id="g20"
           transform="translate(141.4844,475.6807)"><path
             d="M 0,0 C 1.142,0.282 2.199,-0.702 1.985,-1.858 1.62,-3.837 1.208,-6.24 0.751,-9.069 c -0.558,-3.452 -0.965,-6.258 -1.223,-8.415 -0.086,-0.727 -0.655,-1.301 -1.38,-1.406 -7.934,-1.139 -15.048,-1.709 -21.344,-1.709 -6.387,0 -12.329,0.797 -17.828,2.395 -5.5,1.596 -10.546,4.217 -15.138,7.864 -4.592,3.646 -7.874,7.932 -9.846,12.861 -1.971,4.927 -2.956,10.446 -2.956,16.556 0,7.135 1.331,13.551 3.991,19.247 2.661,5.696 6.485,10.447 11.472,14.25 4.986,3.805 10.456,6.525 16.409,8.16 5.951,1.636 12.102,2.455 18.448,2.455 5.533,0 12.306,-0.673 20.322,-2.021 0.763,-0.129 1.335,-0.785 1.352,-1.56 L 3.117,55.975 C 3.195,53.807 3.314,51.422 3.471,48.82 l 0.281,-4.574 c 0.066,-1.076 -0.93,-1.912 -1.981,-1.672 -3.653,0.836 -6.684,1.42 -9.091,1.752 -2.858,0.394 -5.509,0.591 -7.953,0.591 -5.322,0 -10.111,-1.064 -14.369,-3.192 -4.257,-2.129 -7.608,-5.225 -10.052,-9.284 -2.445,-4.061 -3.666,-8.554 -3.666,-13.482 0,-4.494 1.025,-8.348 3.075,-11.56 2.05,-3.213 4.818,-5.697 8.307,-7.451 3.49,-1.754 7.795,-2.631 12.921,-2.631 2.799,0 5.844,0.226 9.135,0.68 C -7.191,-1.627 -3.884,-0.96 0,0"
             style="fill:#00c9a7;fill-opacity:1;fill-rule:nonzero;stroke:none"
             id="path22"
             inkscape:connector-curvature="0" /></g><g
           id="g24"
           transform="translate(203.0225,521.0713)"><path
             d="m 0,0 c -4.534,0 -8.633,-1.115 -12.299,-3.341 -3.667,-2.227 -6.484,-5.322 -8.456,-9.284 -1.972,-3.961 -2.957,-8.209 -2.957,-12.742 0,-4.179 0.897,-8.003 2.691,-11.472 1.793,-3.47 4.524,-6.18 8.189,-8.13 3.667,-1.951 7.55,-2.927 11.649,-2.927 4.376,0 8.387,1.094 12.034,3.282 3.646,2.187 6.425,5.262 8.337,9.224 1.912,3.961 2.868,8.111 2.868,12.447 0,4.218 -0.887,8.11 -2.66,11.678 -1.775,3.568 -4.377,6.337 -7.806,8.308 C 8.16,-0.986 4.296,0 0,0 m 1.064,17.799 c 6.307,0 12.378,-0.849 18.213,-2.544 5.833,-1.694 10.939,-4.404 15.314,-8.13 4.377,-3.725 7.648,-8.013 9.816,-12.86 2.168,-4.849 3.253,-10.428 3.253,-16.735 0,-6.623 -1.193,-12.703 -3.578,-18.241 -2.386,-5.539 -5.824,-10.241 -10.317,-14.102 -4.495,-3.866 -9.857,-6.694 -16.085,-8.486 -6.229,-1.794 -12.713,-2.69 -19.454,-2.69 -6.662,0 -13.048,0.877 -19.159,2.631 -6.11,1.753 -11.422,4.591 -15.935,8.514 -4.514,3.922 -7.716,8.288 -9.61,13.098 -1.891,4.808 -2.837,10.149 -2.837,16.023 0,8.634 2.001,16.211 6.002,22.737 4,6.524 9.934,11.619 17.798,15.286 7.865,3.665 16.724,5.499 26.579,5.499"
             style="fill:#00c9a7;fill-opacity:1;fill-rule:nonzero;stroke:none"
             id="path26"
             inkscape:connector-curvature="0" /></g><g
           id="g28"
           transform="translate(297.9258,496.7686)"><path
             d="m 0,0 h 13.549 c 1.1,0 1.877,1.082 1.534,2.128 -2.55,7.762 -4.39,13.38 -5.52,16.853 C 9.108,20.383 7.167,20.48 6.555,19.14 4.692,15.053 3.063,11.585 1.669,8.736 L -1.453,2.325 C -1.977,1.251 -1.194,0 0,0 m -45.524,-40.118 c -1.252,-0.014 -2.051,1.34 -1.425,2.425 l 3.493,6.058 30.586,57.593 3.255,6.445 c 0.86,1.723 2.033,4.131 3.515,7.226 0.273,0.566 0.86,0.93 1.489,0.923 6.405,-0.072 11.123,-0.107 14.154,-0.107 5.107,0 9.865,0.033 14.274,0.1 0.697,0.011 1.313,-0.425 1.542,-1.082 l 8.244,-23.557 17.55,-47.423 2.538,-6.392 c 0.424,-1.069 -0.372,-2.227 -1.522,-2.214 -5.4,0.06 -8.74,0.092 -10.019,0.092 -3.095,0 -7.55,-0.035 -13.365,-0.104 -0.737,-0.009 -1.387,0.477 -1.582,1.188 -1.64,5.969 -3.899,12.861 -6.777,20.676 -0.235,0.635 -0.844,1.064 -1.522,1.064 H -8.725 c -0.617,0 -1.178,-0.344 -1.451,-0.898 -3.154,-6.424 -6.408,-13.445 -9.761,-21.062 -0.259,-0.593 -0.855,-0.979 -1.502,-0.972 -6.708,0.072 -10.85,0.108 -12.425,0.108 -2.556,0 -6.443,-0.03 -11.66,-0.087"
             style="fill:#00c9a7;fill-opacity:1;fill-rule:nonzero;stroke:none"
             id="path30"
             inkscape:connector-curvature="0" /></g><g
           id="g32"
           transform="translate(426.1396,475.6807)"><path
             d="M 0,0 C 1.143,0.282 2.2,-0.702 1.986,-1.858 1.621,-3.837 1.209,-6.24 0.752,-9.069 c -0.558,-3.452 -0.965,-6.258 -1.223,-8.415 -0.087,-0.727 -0.655,-1.301 -1.381,-1.406 -7.933,-1.139 -15.047,-1.709 -21.343,-1.709 -6.387,0 -12.33,0.797 -17.829,2.395 -5.499,1.596 -10.545,4.217 -15.137,7.864 -4.593,3.646 -7.874,7.932 -9.846,12.861 -1.972,4.927 -2.957,10.446 -2.957,16.556 0,7.135 1.331,13.551 3.992,19.247 2.661,5.696 6.485,10.447 11.472,14.25 4.986,3.805 10.455,6.525 16.408,8.16 5.952,1.636 12.103,2.455 18.448,2.455 5.533,0 12.307,-0.673 20.322,-2.021 0.763,-0.129 1.335,-0.785 1.353,-1.56 L 3.118,55.975 C 3.196,53.807 3.314,51.422 3.472,48.82 l 0.281,-4.574 c 0.066,-1.076 -0.93,-1.912 -1.982,-1.672 -3.652,0.836 -6.683,1.42 -9.09,1.752 -2.858,0.394 -5.51,0.591 -7.953,0.591 -5.322,0 -10.112,-1.064 -14.37,-3.192 -4.256,-2.129 -7.608,-5.225 -10.051,-9.284 -2.445,-4.061 -3.666,-8.554 -3.666,-13.482 0,-4.494 1.024,-8.348 3.074,-11.56 2.051,-3.213 4.819,-5.697 8.308,-7.451 3.489,-1.754 7.795,-2.631 12.921,-2.631 2.798,0 5.844,0.226 9.135,0.68 C -7.191,-1.627 -3.883,-0.96 0,0"
             style="fill:#00c9a7;fill-opacity:1;fill-rule:nonzero;stroke:none"
             id="path34"
             inkscape:connector-curvature="0" /></g><g
           id="g36"
           transform="translate(441.9004,456.6387)"><path
             d="M 0,0 C -0.945,-0.011 -1.705,0.788 -1.639,1.731 L 0.526,32.265 1.582,55.8 1.874,66.266 c 0.078,3.035 0.118,5.951 0.118,8.751 L 1.95,79.039 c -0.009,0.907 0.733,1.645 1.64,1.634 5.372,-0.066 9.456,-0.098 12.254,-0.098 2.161,0 5.75,0.031 10.767,0.095 0.953,0.013 1.714,-0.804 1.638,-1.753 -0.796,-9.878 -1.332,-18.723 -1.609,-26.536 -0.033,-0.913 0.702,-1.667 1.617,-1.667 h 28.984 c 0.86,0 1.57,0.664 1.615,1.522 0.164,3.044 0.32,6.911 0.47,11.602 0.176,5.511 0.265,9.272 0.265,11.286 0,0.824 -0.024,2.121 -0.07,3.889 -0.025,0.915 0.713,1.674 1.629,1.667 l 12.318,-0.105 c 1.326,0 4.873,0.032 10.64,0.098 0.945,0.011 1.704,-0.796 1.639,-1.737 C 84.409,59.557 83.55,45.075 83.17,35.487 82.794,26.006 82.599,14.716 82.584,1.617 82.583,0.719 81.852,-0.014 80.953,-0.005 L 69.681,0.099 c -1.769,0 -5.782,-0.035 -12.036,-0.1 -0.964,-0.01 -1.727,0.814 -1.632,1.773 0.844,8.541 1.437,18.305 1.779,29.291 0.028,0.913 -0.705,1.675 -1.618,1.675 H 27.198 c -0.874,0 -1.59,-0.694 -1.616,-1.568 L 24.686,1.562 C 24.658,0.683 23.935,-0.014 23.056,-0.007 L 10.904,0.099 C 9.325,0.099 5.689,0.065 0,0"
             style="fill:#00c9a7;fill-opacity:1;fill-rule:nonzero;stroke:none"
             id="path38"
             inkscape:connector-curvature="0" /></g><g
           id="g40"
           transform="translate(541,456.6367)"><path
             d="M 0,0 C -0.944,-0.01 -1.7,0.799 -1.633,1.741 0.556,32.54 1.649,56.315 1.649,73.067 l -0.045,5.98 c -0.007,0.905 0.734,1.64 1.638,1.63 5.993,-0.068 10.059,-0.1 12.196,-0.1 0.976,0 4.626,0.032 10.948,0.1 0.949,0.01 1.709,-0.805 1.635,-1.751 C 27.372,70.707 26.846,62.9 26.44,55.506 25.887,44.468 25.489,34.149 25.253,24.551 25.033,15.708 24.916,8.062 24.898,1.61 24.896,0.713 24.164,-0.011 23.267,-0.002 L 12.78,0.101 C 10.61,0.101 6.351,0.066 0,0"
             style="fill:#00c9a7;fill-opacity:1;fill-rule:nonzero;stroke:none"
             id="path42"
             inkscape:connector-curvature="0" /></g><g
           id="g44"
           transform="translate(582.2637,456.6416)"><path
             d="m 0,0 c -0.962,-0.012 -1.729,0.812 -1.638,1.771 l 1.012,10.624 2.307,42.1 0.649,16.971 v 7.588 c 0,0.9 0.743,1.627 1.644,1.616 5.45,-0.066 10.311,-0.098 14.585,-0.098 3.173,0 7.565,0.034 13.177,0.106 0.598,0.008 1.157,-0.315 1.445,-0.837 L 57.954,34.787 58.74,33.265 c 0.755,-1.464 2.959,-0.999 3.051,0.645 0.33,5.9 0.666,13.232 1.007,21.994 0.415,10.646 0.645,18.365 0.69,23.158 0.009,0.897 0.744,1.617 1.642,1.603 4.089,-0.062 7.424,-0.093 10.003,-0.093 1.21,0 4.474,0.032 9.795,0.097 0.952,0.011 1.717,-0.798 1.64,-1.747 L 85.292,63.069 82.631,14.109 82.316,1.576 C 82.294,0.689 81.557,-0.012 80.67,0 76.144,0.063 71.886,0.096 67.896,0.096 64.378,0.096 59.58,0.06 53.505,-0.012 52.9,-0.019 52.332,0.318 52.049,0.853 50.234,4.267 48.873,6.775 47.965,8.377 l -9.921,16.859 c -3.269,5.521 -6.279,10.805 -9.035,15.854 -0.931,1.642 -1.877,3.368 -2.84,5.177 -0.773,1.452 -2.97,0.964 -3.044,-0.678 L 22.127,23.58 21.562,1.577 C 21.539,0.691 20.804,-0.012 19.918,0.002 15.815,0.063 12.629,0.096 10.358,0.096 8.42,0.096 4.967,0.063 0,0"
             style="fill:#00c9a7;fill-opacity:1;fill-rule:nonzero;stroke:none"
             id="path46"
             inkscape:connector-curvature="0" /></g><g
           id="g48"
           transform="translate(727.2783,503.6865)"><path
             d="m 0,0 c 5.4,-0.08 10.544,-0.118 15.433,-0.118 8.356,0 14.901,0.038 19.63,0.118 -0.511,-5.401 -1.032,-13.048 -1.562,-22.943 -0.531,-9.895 -0.855,-17.365 -0.974,-22.411 -4.535,-0.827 -8.29,-1.428 -11.265,-1.802 -2.977,-0.375 -6.554,-0.71 -10.734,-1.006 -4.178,-0.296 -7.904,-0.442 -11.175,-0.442 -5.362,0 -10.625,0.432 -15.79,1.299 -5.165,0.867 -9.787,2.267 -13.867,4.2 -4.08,1.93 -7.481,4.552 -10.202,7.864 -2.72,3.311 -4.818,7.232 -6.296,11.766 -1.479,4.533 -2.219,9.224 -2.219,14.074 0,8.002 1.992,15.432 5.973,22.293 3.982,6.858 9.707,12.288 17.178,16.29 7.471,4 17.118,6.002 28.945,6.002 8.633,0 18.191,-1.046 28.679,-3.134 0,-5.757 0.255,-12.162 0.767,-19.218 -2.838,0.945 -5.134,1.664 -6.888,2.158 -1.755,0.492 -3.805,0.946 -6.15,1.36 -2.345,0.414 -4.573,0.718 -6.682,0.917 -2.109,0.196 -3.99,0.295 -5.647,0.295 -4.337,0 -8.436,-0.621 -12.299,-1.862 -3.864,-1.242 -7.184,-3.154 -9.963,-5.736 -2.78,-2.582 -4.86,-5.667 -6.238,-9.254 -1.382,-3.588 -2.07,-7.372 -2.07,-11.354 0,-4.06 0.788,-7.677 2.364,-10.85 1.577,-3.174 4.081,-5.588 7.511,-7.244 3.43,-1.656 7.252,-2.484 11.472,-2.484 3.506,0 7.35,0.513 11.529,1.538 l 0.675,12.831 c -2.568,0.119 -4.089,0.178 -4.564,0.178 l -6.281,-0.059 0.414,7.274 c 0.039,0.787 0.098,1.921 0.178,3.398 C -0.04,-4.582 0,-2.563 0,0"
             style="fill:#00c9a7;fill-opacity:1;fill-rule:nonzero;stroke:none"
             id="path50"
             inkscape:connector-curvature="0" /></g><g
           id="g52"
           transform="translate(540,366.1094)"><path
             d="M 0,0 C 1.931,0 1.934,3 0,3 -1.931,3 -1.934,0 0,0"
             style="fill:#680080;fill-opacity:1;fill-rule:nonzero;stroke:none"
             id="path54"
             inkscape:connector-curvature="0" /></g></g></g><g
       id="g56"><g
         id="g58"
         clip-path="url(#clipPath62)"><g
           id="g64"
           transform="translate(826.708,500.54)"><path
             d="m 0,0 c -14.223,-17.071 -31.84,-30.058 -51.288,-40.758 -30.116,-16.571 -62.294,-25.305 -98.338,-28.194 -2.162,-0.173 -2.045,-3.409 0.124,-3.403 0.037,0 0.074,0 0.111,0.001 57.235,0.56 112.117,9.713 158.907,45.94"
             style="fill:#f3ce00;fill-opacity:1;fill-rule:nonzero;stroke:none"
             id="path66"
             inkscape:connector-curvature="0" /></g><g
           id="g68"
           transform="translate(794.0977,598.0127)"><path
             d="m 0,0 c -2.061,-0.137 -4.302,-0.139 -6.756,-0.034 -26.603,-0.329 -35.116,-0.241 -62.582,-0.286 -5.322,-0.008 -9.996,1.34 -14.217,-5.695 -3.618,-6.031 -7.687,-15.47 -2.973,-19.737 4.18,-3.785 17.205,2.998 22.878,4.056 16.176,3.017 24.033,1.918 40.073,-0.641 26.112,-4.166 45.229,-25.419 48.334,-51.393 0.727,-6.087 0.651,-4.407 -0.12,-5.564 -4.134,-6.201 -18.124,-22.696 -18.124,-22.696 0,0 0.269,1.202 0.829,2.612 3.687,9.304 -1.811,20.529 -5.368,30.568 -6.218,17.547 -24.458,28.386 -44.833,26.609 -20.005,-1.745 -39.445,-3.999 -57.526,-13.132 -4.925,-2.487 -9.823,-4.559 -14.753,-0.439 -4.985,4.166 -3.64,9.701 -2.106,14.72 5.103,16.702 10.855,33.211 15.749,49.971 2.474,8.471 7.333,11.632 15.971,11.543 23.415,-0.239 46.837,0.01 70.251,-0.166 0.161,-10e-4 0.322,0.009 0.481,0.03 2.518,0.322 5.037,0.611 7.562,0.799"
             style="fill:#f3ce00;fill-opacity:1;fill-rule:nonzero;stroke:none"
             id="path70"
             inkscape:connector-curvature="0" /></g></g></g><g
       id="g72"><g
         id="g74"
         clip-path="url(#clipPath78)"><g
           id="g80"
           transform="translate(786.8672,619.1377)"><path
             d="m 0,0 c 7.516,0.561 11.443,3.596 13.828,10.774 7.914,23.822 16.4,47.453 24.664,71.158 1.95,5.595 4.091,11.316 11.282,11.321 7.359,0.006 8.869,-6.104 10.991,-11.543 C 69.65,58.926 78.891,36.277 87.454,13.374 89.7,7.367 92.568,5.391 99.04,5.043 c 47.507,-2.555 85.707,-25.833 120.821,-55.576 0.434,-0.367 0.853,-0.762 0.73,-1.449 -0.184,-1.02 -1.435,-1.435 -2.27,-0.822 -23.479,17.231 -47.677,28.857 -74.75,34.614 -17.456,3.712 -35,5.072 -52.626,2.162 -9.128,-1.508 -13.879,2.129 -16.898,10.442 C 67.643,12.048 60.846,29.54 54.157,47.071 52.912,50.334 48.282,50.28 47.12,46.986 41.851,32.051 36.568,17.119 31.33,2.172 25.456,-14.589 19.619,-20.301 7.23,-21.125"
             style="fill:#003366;fill-opacity:1;fill-rule:nonzero;stroke:none"
             id="path82"
             inkscape:connector-curvature="0" /></g><g
           id="g84"
           transform="translate(955.7344,450.9951)"><path
             d="m 0,0 c -11.498,29.031 -22.728,58.173 -34.65,87.028 -3.593,8.695 -2.364,14.746 4.254,21.385 9.823,9.856 16.928,15.311 29.25,23.609 6.167,4.154 -19.666,13.209 -26.214,9.688 -5.138,-2.762 -12.55,-7.747 -12.754,-7.89 -23.719,-16.702 -28.782,-25.58 -18.003,-52.927 7.444,-18.887 14.831,-37.795 22.237,-56.697 1.359,-3.47 -2.343,-6.746 -5.625,-4.978 -21.076,11.352 -42.234,22.559 -63.126,34.24 -9.219,5.155 -16.433,4.955 -23.514,-2.895 -0.556,-0.617 -0.708,-1.502 -0.425,-2.284 l 0.125,-0.346 c 0.081,-0.226 0.126,-0.451 0.133,-0.691 0.14,-4.241 0.347,-12.725 -0.09,-15.963 -0.345,-2.547 -2.898,-7.99 -5.329,-12.736 -1.095,-2.137 1.404,-4.309 3.366,-2.923 l 10.896,7.497 -0.01,0.037 c 6.357,4.912 10.661,5.378 17.647,1.557 26.684,-14.592 53.799,-28.396 80.689,-42.613 6.419,-3.394 12.809,-7.916 19.73,-1.927 C 5.351,-13.977 2.714,-6.852 0,0"
             style="fill:#003366;fill-opacity:1;fill-rule:nonzero;stroke:none"
             id="path86"
             inkscape:connector-curvature="0" /></g></g></g></g></svg>